# xmcd CD database file
#
# Track frame offsets:
#	150
#	28678
#	47250
#	65631
#	83658
#	96837
#	110478
#	130137
#	143107
#	163302
#	177351
#	191720
#	203346
#	217364
#	242731
#	258344
#	275121
#	293550
#	309931
#	320818
#
# Disc length: 4653 seconds
#
# Revision: 0
# Processed by: cddbd v1.4PL0 Copyright (c) Steve Scherf et al.
# Submitted via: CDex 1.50beta10
#
DISCID=2e122b14
DTITLE=Freddie Robinson - Bluesology
DYEAR=1999
DGENRE=Blues
TTITLE0=Bluesology
TTITLE1=I Found My Soul Last
TTITLE2=At The Drive-In
TTITLE3=Off The Cuff
TTITLE4=Medicine Man
TTITLE5=The River's Invitation
TTITLE6=Changing Dreams
TTITLE7=Try It One Time
TTITLE8=Georgia On My Mind
TTITLE9=You're On My Side
TTITLE10=I Remember
TTITLE11=Here Comes Your Good Thing
TTITLE12=House Hunting
TTITLE13=After Hours
TTITLE14=The Creeper
TTITLE15=Sister Hot Pants
TTITLE16=Treat Her Like A Lady
TTITLE17=Good Feeling
TTITLE18=Teddy Bear
TTITLE19=Black Fox
EXTD=YEAR: 1999
EXTT0=
EXTT1=
EXTT2=
EXTT3=
EXTT4=
EXTT5=
EXTT6=
EXTT7=
EXTT8=
EXTT9=
EXTT10=
EXTT11=
EXTT12=
EXTT13=
EXTT14=
EXTT15=
EXTT16=
EXTT17=
EXTT18=
EXTT19=
PLAYORDER=
